<svg width="96" height="96" viewBox="0 0 96 96" fill="none" xmlns="http://www.w3.org/2000/svg">
<path d="M47.9983 95.9969C44.3071 95.9969 40.6207 94.5953 37.803 91.7969L34.299 88.2929C32.9406 86.9393 31.1214 86.1905 29.1918 86.1857H24.2622C16.2942 86.1857 9.80936 79.7009 9.80936 71.7329V66.7985C9.80456 64.8737 9.05576 63.0545 7.69736 61.6865L4.25096 58.2449C-1.39384 52.6337 -1.41784 43.4609 4.19816 37.8113L7.70216 34.3025C9.05576 32.9441 9.80456 31.1249 9.80936 29.1953V24.2705C9.80936 16.2977 16.2942 9.81287 24.2622 9.81287H29.1966C31.1214 9.81287 32.9358 9.06407 34.3038 7.69607L37.755 4.25447C43.3663 -1.39033 52.5343 -1.41913 58.1887 4.20167L61.6927 7.70567C63.0559 9.06407 64.8703 9.81287 66.7951 9.81287H71.7295C79.6975 9.81287 86.1823 16.2977 86.1823 24.2705V29.2001C86.187 31.1249 86.9359 32.9441 88.2943 34.3121L91.7407 37.7585C94.4719 40.4753 95.9839 44.0945 95.9983 47.9585C96.0079 51.7985 94.5295 55.4129 91.8367 58.1441C91.7887 58.1921 91.7455 58.2449 91.6975 58.2881L88.2895 61.6961C86.9359 63.0545 86.187 64.8737 86.1823 66.8033V71.7329C86.1823 79.7009 79.6975 86.1857 71.7295 86.1857H66.7951C64.8703 86.1905 63.0511 86.9393 61.6879 88.2977L58.2367 91.7441C55.4239 94.5761 51.7087 95.9969 47.9983 95.9969Z" fill="url(#paint0_linear_398_1267)"/>
<defs>
<linearGradient id="paint0_linear_398_1267" x1="-4.00024" y1="92.5" x2="281.5" y2="-130" gradientUnits="userSpaceOnUse">
<stop offset="0.0677083" stop-color="#4AA366"/>
<stop offset="1" stop-color="#1D4D4F"/>
</linearGradient>
</defs>
</svg>
